# xmcd CD database file
#
# Track frame offsets:
#	183
#	25240
#	47443
#	74423
#	111625
#	143630
#	160188
#	174445
#	210348
#	232870
#	267813
#
# Disc length: 4000 seconds
#
# Revision: 0
# Processed by: cddbd v1.5.2PL0 Copyright (c) Steve Scherf et al.
# Submitted via: CDex 1.51
#
DISCID=8e0f9e0b
DTITLE=Divers - Jazz Montréal
DYEAR=1990
DGENRE=Jazz
TTITLE0=Quintet Jean-Pierre Zanella - Désobrigado
TTITLE1=Trio Yannick Rieu - Qu'est-ce que le Jazz
TTITLE2=Ensemble James Gelfand - Sunsplash
TTITLE3=Quartet Sylvain Gagnon - Boa Viagem
TTITLE4=Trio Bill Coon - Tu es trop Belle
TTITLE5=Sylvain Provost and Normand Lachapelle - Avant de partir
TTITLE6=Pierre Lafrenaye and Eric Lagacé - Petite Valse
TTITLE7=Trio Michel Ratté - Balade #1
TTITLE8=Northland - Bop pour toi
TTITLE9=Jim Hillman and The Merlin Factor - Peri's Cope
TTITLE10=Abri Fiscal - Les fusils du désert
EXTD=YEAR: 1990
EXTT0=
EXTT1=
EXTT2=
EXTT3=
EXTT4=
EXTT5=
EXTT6=
EXTT7=
EXTT8=
EXTT9=
EXTT10=
PLAYORDER=
